<?xml version="1.0" encoding="UTF-8" standalone="no"?>
<svg
   id="Layer_1"
   data-name="Layer 1"
   viewBox="0 0 670.72386 230.35435"
   version="1.1"
   sodipodi:docname="kubewatt-text.svg"
   inkscape:version="1.4 (e7c3feb100, 2024-10-09)"
   width="670.72388"
   height="230.35435"
   xmlns:inkscape="http://www.inkscape.org/namespaces/inkscape"
   xmlns:sodipodi="http://sodipodi.sourceforge.net/DTD/sodipodi-0.dtd"
   xmlns:xlink="http://www.w3.org/1999/xlink"
   xmlns="http://www.w3.org/2000/svg"
   xmlns:svg="http://www.w3.org/2000/svg">
  <sodipodi:namedview
     id="namedview30"
     pagecolor="#ffffff"
     bordercolor="#000000"
     borderopacity="0.25"
     inkscape:showpageshadow="2"
     inkscape:pageopacity="0.0"
     inkscape:pagecheckerboard="0"
     inkscape:deskcolor="#d1d1d1"
     showgrid="false"
     inkscape:zoom="1"
     inkscape:cx="179.5"
     inkscape:cy="149"
     inkscape:window-width="3430"
     inkscape:window-height="1377"
     inkscape:window-x="0"
     inkscape:window-y="0"
     inkscape:window-maximized="0"
     inkscape:current-layer="Layer_1" />
  <defs
     id="defs10">
    <style
       id="style1">
      .cls-1 {
        fill: url(#linear-gradient);
      }

      .cls-1, .cls-2, .cls-3, .cls-4, .cls-5, .cls-6, .cls-7, .cls-8, .cls-9, .cls-10, .cls-11 {
        stroke-width: 0px;
      }

      .cls-2 {
        fill: url(#New_Gradient_Swatch_copy-3);
      }

      .cls-3 {
        fill: url(#New_Gradient_Swatch_copy);
      }

      .cls-4 {
        fill: #a9ff94;
      }

      .cls-5 {
        fill: #95d46b;
      }

      .cls-6 {
        fill: #2ec6ad;
      }

      .cls-12 {
        fill: #231f20;
        stroke-width: 5px;
      }

      .cls-12, .cls-13 {
        stroke: #231f20;
        stroke-miterlimit: 10;
      }

      .cls-7 {
        fill: url(#linear-gradient-2);
      }

      .cls-8 {
        fill: url(#New_Gradient_Swatch_copy-2);
      }

      .cls-9 {
        fill: url(#linear-gradient-3);
      }

      .cls-10, .cls-13 {
        fill: #fff;
      }

      .cls-13 {
        stroke-width: 6px;
      }

      .cls-11 {
        fill: url(#linear-gradient-4);
      }
    </style>
    <linearGradient
       id="linear-gradient"
       x1="140.32001"
       y1="69.559998"
       x2="163.53"
       y2="27.860001"
       gradientUnits="userSpaceOnUse">
      <stop
         offset="0"
         stop-color="#2d928c"
         id="stop1" />
      <stop
         offset=".94"
         stop-color="#cffbe4"
         id="stop2" />
    </linearGradient>
    <linearGradient
       id="New_Gradient_Swatch_copy"
       data-name="New Gradient Swatch copy"
       x1="263.51001"
       y1="110.97"
       x2="257.23999"
       y2="70.029999"
       gradientTransform="rotate(51.47,223.53595,37.812488)"
       gradientUnits="userSpaceOnUse">
      <stop
         offset="0"
         stop-color="#2d928c"
         id="stop3" />
      <stop
         offset="1"
         stop-color="#cffbe4"
         id="stop4" />
    </linearGradient>
    <linearGradient
       id="linear-gradient-2"
       x1="292.79001"
       y1="138.99001"
       x2="229.55"
       y2="183.60001"
       gradientTransform="rotate(102.75,222.64778,124.89402)"
       gradientUnits="userSpaceOnUse">
      <stop
         offset="0"
         stop-color="#2d928c"
         id="stop5" />
      <stop
         offset=".75"
         stop-color="#cffbe4"
         id="stop6" />
    </linearGradient>
    <linearGradient
       id="New_Gradient_Swatch_copy-2"
       data-name="New Gradient Swatch copy"
       x1="427.64999"
       y1="53.32"
       x2="405.35999"
       y2="103.12"
       gradientTransform="rotate(154.22,253.19287,100.9949)"
       xlink:href="#New_Gradient_Swatch_copy" />
    <linearGradient
       id="linear-gradient-3"
       x1="365.64001"
       y1="-9.5600004"
       x2="391.66"
       y2="63.32"
       gradientTransform="rotate(-102.86,241.57585,185.30123)"
       gradientUnits="userSpaceOnUse">
      <stop
         offset="0"
         stop-color="#2d928c"
         id="stop7" />
      <stop
         offset=".73"
         stop-color="#cffbe4"
         id="stop8" />
    </linearGradient>
    <linearGradient
       id="New_Gradient_Swatch_copy-3"
       data-name="New Gradient Swatch copy"
       x1="39.790001"
       y1="184.17"
       x2="69.25"
       y2="140.89999"
       xlink:href="#New_Gradient_Swatch_copy" />
    <linearGradient
       id="linear-gradient-4"
       x1="90.419998"
       y1="-16.59"
       x2="146.45"
       y2="-53.060001"
       gradientTransform="rotate(-51.23,181.19715,45.817419)"
       gradientUnits="userSpaceOnUse">
      <stop
         offset="0"
         stop-color="#2d928c"
         id="stop9" />
      <stop
         offset="1"
         stop-color="#cffbe4"
         id="stop10" />
    </linearGradient>
  </defs>
  <path
     class="cls-13"
     d="M 121.57312,5.0243616 46.143116,41.344362 c -5.61,2.7 -9.69,7.82 -11.08,13.89 l -18.63,81.629998 c -1.39,6.07 0.07,12.45 3.95,17.32 l 52.2,65.46 c 3.88,4.87 9.78,7.71 16.01,7.71 h 83.720004 c 6.23,0 12.12,-2.84 16.01,-7.71 l 52.2,-65.46 c 3.88,-4.87 5.34,-11.25 3.95,-17.32 l -18.63,-81.619998 c -1.39,-6.07 -5.46,-11.19 -11.08,-13.89 l -75.42,-36.3300004 c -5.61,-2.7 -12.15,-2.7 -17.77,0 z"
     id="path10" />
  <path
     class="cls-12"
     d="m 125.45312,14.134362 -74.160004,35.72 c -3.16,1.52 -5.45,4.4 -6.24,7.82 l -18.32,80.249998 c -0.78,3.42 0.04,7.01 2.23,9.75 l 51.32,64.36 c 2.19,2.74 5.5,4.34 9.01,4.34 h 82.310004 c 3.51,0 6.82,-1.6 9.01,-4.34 l 51.32,-64.36 c 2.19,-2.74 3.01,-6.33 2.23,-9.75 l -18.32,-80.249998 c -0.78,-3.42 -3.08,-6.3 -6.24,-7.82 l -74.15,-35.72 c -3.16,-1.52 -6.84,-1.52 -10,0 z"
     id="path11" />
  <path
     class="cls-10"
     d="m 133.84312,71.724362 -13.8,19.64 c -0.11,0.16 0,0.39 0.2,0.39 l 8.1,0.28 c 0.16,0 0.28,0.16 0.23,0.32 -1.43,4.94 -2.86,9.879998 -4.3,14.829998 -0.08,0.27 0.27,0.44 0.44,0.22 5.09,-6.52 10.18,-13.029998 15.27,-19.549998 0.13,-0.16 0.01,-0.41 -0.2,-0.41 h -9.12 c -0.16,0 -0.28,-0.15 -0.24,-0.31 1.29,-5.07 2.58,-10.14 3.87,-15.21 0.07,-0.27 -0.29,-0.43 -0.45,-0.21 z"
     id="path12" />
  <g
     id="g17"
     transform="translate(12.923116,-0.0056384)">
    <path
       class="cls-5"
       d="m 101.78,160.76 c 1.3,-3.06 2.59,-6.11 3.89,-9.17 -0.54,-4.16 -0.96,-12.52 3.42,-21.14 5.36,-10.54 14.78,-15.3 18.03,-16.94 3.75,-1.9 7.83,-3.23 14.14,-5.28 4.36,-1.42 8.03,-2.44 10.57,-3.11 0.86,4.31 3.9,21.98 -6.68,36.37 -2.74,3.73 -8.64,11.75 -18.65,13.05 -4.54,0.59 -8.37,-0.4 -10.72,-1.24 2.75,-5.74 5.8,-9.63 8.08,-12.12 2.99,-3.26 6.1,-5.7 11.5,-11.81 1.21,-1.37 2.17,-2.51 2.8,-3.26 0.76,-0.96 0.83,-2.17 0.31,-2.8 -0.65,-0.79 -2.43,-0.87 -3.57,0.47 -3.29,1.94 -7.19,4.61 -11.19,8.24 -4.44,4.03 -10.35,9.52 -13.99,18.49 -2.05,5.06 -2.73,9.64 -2.95,12.9 -1.66,-0.88 -3.32,-1.76 -4.97,-2.64 z"
       id="path14" />
    <path
       class="cls-5"
       d="m 105.35,125.33 c -1.54,1.95 -3.45,4.8 -4.97,8.55 -1.68,4.12 -2.27,7.81 -2.49,10.41 -1.36,0.06 -2.55,-0.13 -3.57,-0.47 -7.26,-2.35 -11.46,-13.33 -11.66,-27.2 3.4,0.74 7.29,1.82 11.5,3.42 4.35,1.66 8.09,3.52 11.19,5.28 z"
       id="path15" />
    <path
       class="cls-4"
       d="m 106.17,138.66 c 3.27,-6.44 7.03,-10.94 9.8,-13.8 2.72,-2.81 15.14,-15.64 32.68,-15.95 1.6,-0.03 2.92,0.05 3.8,0.13 -0.21,-1.31 -0.42,-2.61 -0.63,-3.92 -4.25,0.25 -26.09,1.92 -38.84,19.34 -3.62,4.95 -5.65,9.99 -6.82,14.2 z"
       id="path16" />
    <path
       class="cls-4"
       d="m 82.66,116.62 c 3.12,1.08 6.76,2.59 10.65,4.74 4.06,2.25 7.4,4.64 10.03,6.79 0.67,-0.94 1.34,-1.89 2.01,-2.83 -3.08,-1.5 -6.16,-3.01 -9.24,-4.51 -4.48,-1.4 -8.96,-2.79 -13.45,-4.19 z"
       id="path17" />
  </g>
  <path
     class="cls-6"
     d="m 201.99312,56.084362 c -7.34,5.66 -14.67,11.32 -22.01,16.97 -14.01,-6.8 -28.01,-13.6 -42.02,-20.4 -0.1,-9.34 -0.2,-18.67 -0.29,-28.01 21.44,10.48 42.88,20.96 64.32,31.43 z"
     id="path18"
     style="fill:#3eb49d;fill-opacity:1" />
  <path
     class="cls-6"
     d="m 224.94312,136.00436 c -9,-2.21 -17.99,-4.43 -26.99,-6.64 -3.41,-15.19 -6.81,-30.379998 -10.22,-45.579998 7.24,-5.89 14.48,-11.78 21.73,-17.68 5.16,23.3 10.32,46.599998 15.47,69.889998 z"
     id="path20"
     style="fill:#3eb49d;fill-opacity:1" />
  <path
     class="cls-6"
     d="m 176.69312,203.68436 c -3.9,-8.4 -7.8,-16.81 -11.7,-25.21 9.72,-12.16 19.45,-24.32 29.17,-36.48 9.13,1.97 18.25,3.93 27.38,5.9 -14.95,18.6 -29.91,37.19 -44.86,55.79 z"
     id="path22"
     style="fill:#3eb49d;fill-opacity:1" />
  <path
     class="cls-6"
     d="m 93.683116,208.43436 c 4.15,-8.28 8.290004,-16.57 12.440004,-24.85 15.57,0.03 31.14,0.07 46.71,0.1 4.15,8.36 8.3,16.73 12.44,25.09 -23.86,-0.11 -47.72,-0.23 -71.590004,-0.34 z"
     id="path24"
     style="fill:#3eb49d;fill-opacity:1" />
  <path
     class="cls-6"
     d="m 52.453116,64.364362 c 7.15,5.89 14.3,11.78 21.44,17.68 -3.51,15.17 -7.02,30.329998 -10.54,45.499998 -9.08,2.17 -18.16,4.35 -27.24,6.52 5.44,-23.23 10.89,-46.469998 16.33,-69.699998 z"
     id="path26"
     style="fill:#3eb49d;fill-opacity:1" />
  <path
     class="cls-6"
     d="m 38.523116,146.33436 c 9.06,-1.92 18.12,-3.84 27.19,-5.76 9.68,12.2 19.35,24.39 29.03,36.59 -3.96,8.46 -7.91,16.91 -11.87,25.37 -14.78,-18.73 -29.57,-37.46 -44.35,-56.19 z"
     id="path28"
     style="fill:#3eb49d;fill-opacity:1" />
  <path
     class="cls-6"
     d="m 125.41312,24.374362 c -0.18,9.26 -0.37,18.52 -0.55,27.79 -14.07,6.66 -28.140004,13.32 -42.220004,19.98 -7.34,-5.77 -14.68,-11.54 -22.02,-17.31 21.59,-10.15 43.190004,-20.31 64.780004,-30.46 z"
     id="path30"
     style="fill:#3eb49d;fill-opacity:1" />
  <path
     style="fill:#56ada2;fill-opacity:1;fill-rule:nonzero;stroke:none;stroke-width:0;stroke-dasharray:none;stroke-opacity:1"
     d="m 197.95312,129.36436 -3.29,3.31 -11.42,-50.399998 4.49,1.51 z"
     id="path31" />
  <path
     style="fill:#359790;fill-opacity:1;fill-rule:nonzero;stroke:none;stroke-width:0;stroke-dasharray:none;stroke-opacity:1"
     d="m 197.95312,129.36436 26.99,6.64 5.36,5.3 -35.64,-8.63 z"
     id="path32" />
  <path
     style="fill:#67b7ab;fill-opacity:1;fill-rule:nonzero;stroke:none;stroke-width:0;stroke-dasharray:none;stroke-opacity:1"
     d="m 224.93812,135.99936 5.365,5.305 -18.37,-82.409998 -2.47,7.21 z"
     id="path33" />
  <path
     style="fill:#cffbe4;fill-opacity:1;fill-rule:nonzero;stroke:none;stroke-width:0;stroke-dasharray:none;stroke-opacity:1"
     d="m 187.73312,83.784362 21.73,-17.68 2.47,-7.21 -28.69,23.38 z"
     id="path34"
     inkscape:label="path34" />
  <path
     style="fill:#caf8e1;fill-opacity:1;fill-rule:nonzero;stroke:none;stroke-width:0;stroke-dasharray:none;stroke-opacity:1"
     d="m 137.67312,24.644362 -4.11,-6.42 75.91,36.97 -7.48,0.88 z"
     id="path36" />
  <path
     style="fill:#3f9e96;fill-opacity:1;fill-rule:nonzero;stroke:none;stroke-width:0;stroke-dasharray:none;stroke-opacity:1"
     d="m 201.99312,56.084362 7.48,-0.89 -28.95,22.5 -0.54,-4.64 z"
     id="path37" />
  <path
     style="fill:#2d928c;fill-opacity:1;fill-rule:nonzero;stroke:none;stroke-width:0;stroke-dasharray:none;stroke-opacity:1"
     d="m 179.98312,73.054362 0.54,4.64 -46.54,-22.46 3.98,-2.58 z"
     id="path38" />
  <path
     style="fill:#87ccbd;fill-opacity:1;fill-rule:nonzero;stroke:none;stroke-width:0;stroke-dasharray:none;stroke-opacity:1"
     d="m 137.96312,52.654362 -0.29,-28.01 -4.11,-6.42 0.42,37.01 z"
     id="path39" />
  <path
     style="fill:#3f9e96;fill-opacity:1;fill-rule:nonzero;stroke:none;stroke-width:0;stroke-dasharray:none;stroke-opacity:1"
     d="m 125.40312,24.374362 4,-6.39 -0.58,36.66 -3.96,-2.48 z"
     id="path40" />
  <path
     style="fill:#2d928c;fill-opacity:1;fill-rule:nonzero;stroke:none;stroke-width:0;stroke-dasharray:none;stroke-opacity:1"
     d="m 124.86312,52.164362 3.96,2.48 -46.660004,22.22 0.48,-4.72 z"
     id="path41" />
  <path
     style="fill:#33968f;fill-opacity:1;fill-rule:nonzero;stroke:none;stroke-width:0;stroke-dasharray:none;stroke-opacity:1"
     d="m 82.643116,72.144362 -0.48,4.72 -29.12,-22.85 7.58,0.82 z"
     id="path42" />
  <path
     style="fill:#cffbe4;fill-opacity:1;fill-rule:nonzero;stroke:none;stroke-width:0;stroke-dasharray:none;stroke-opacity:1"
     d="m 60.623116,54.834362 64.780004,-30.46 4,-6.39 -76.360004,36.03 z"
     id="path43" />
  <path
     style="fill:#67b7ab;fill-opacity:1;fill-rule:nonzero;stroke:none;stroke-width:0;stroke-dasharray:none;stroke-opacity:1"
     d="m 52.443116,64.364362 -2.52,-7.09 28.38,23.21 -4.41,1.56 z"
     id="path44" />
  <path
     style="fill:#3f9e96;fill-opacity:1;fill-rule:nonzero;stroke:none;stroke-width:0;stroke-dasharray:none;stroke-opacity:1"
     d="m 73.893116,82.044362 -10.54,45.499998 3.41,3.31 11.54,-50.369998 z"
     id="path45" />
  <path
     style="fill:#2d928c;fill-opacity:1;fill-rule:nonzero;stroke:none;stroke-width:0;stroke-dasharray:none;stroke-opacity:1"
     d="m 63.353116,127.54436 3.41,3.31 c 0,0 -35.99,8.65 -35.99,8.65 l 5.34,-5.44 z"
     id="path46" />
  <path
     style="fill:#aae3d0;fill-opacity:1;fill-rule:nonzero;stroke:none;stroke-width:0;stroke-dasharray:none;stroke-opacity:1"
     d="m 36.113116,134.06436 -5.34,5.44 19.15,-82.229998 2.52,7.09 z"
     id="path47" />
  <path
     style="fill:#67b7ab;fill-opacity:1;fill-rule:nonzero;stroke:none;stroke-width:0;stroke-dasharray:none;stroke-opacity:1"
     d="m 65.713116,140.57436 1.52,-4.42 32.22,40.4 -4.71,0.61 z"
     id="path48" />
  <path
     style="fill:#cffbe4;fill-opacity:1;fill-rule:nonzero;stroke:none;stroke-width:0;stroke-dasharray:none;stroke-opacity:1"
     d="m 67.233116,136.15436 -1.52,4.42 -27.19,5.77 -7.12,-2.46 z"
     id="path49" />
  <path
     style="fill:#359790;fill-opacity:1;fill-rule:nonzero;stroke:none;stroke-width:0;stroke-dasharray:none;stroke-opacity:1"
     d="m 38.523116,146.34436 44.35,56.19 0.93,7.56 -52.4,-66.21 z"
     id="path50" />
  <path
     style="fill:#2d928c;fill-opacity:1;fill-rule:nonzero;stroke:none;stroke-width:0;stroke-dasharray:none;stroke-opacity:1"
     d="m 82.873116,202.53436 0.93,7.56 15.65,-33.54 -4.71,0.61 z"
     id="path51" />
  <path
     style="fill:#cffbe4;fill-opacity:1;fill-rule:nonzero;stroke:none;stroke-width:0;stroke-dasharray:none;stroke-opacity:1"
     d="m 106.12312,183.58436 -2.52,-3.95 51.68,-0.01 -2.45,4.06 z"
     id="path52" />
  <path
     style="fill:#4ba59c;fill-opacity:1;fill-rule:nonzero;stroke:none;stroke-width:0;stroke-dasharray:none;stroke-opacity:1"
     d="m 152.83312,183.68436 2.45,-4.06 16.47,33.14 -6.48,-3.99 z"
     id="path53" />
  <path
     style="fill:#2d928c;fill-opacity:1;fill-rule:nonzero;stroke:none;stroke-width:0;stroke-dasharray:none;stroke-opacity:1"
     d="m 165.27312,208.77436 6.48,3.99 -84.430004,-0.28 6.36,-4.05 z"
     id="path54" />
  <path
     style="fill:#93d4c3;fill-opacity:1;fill-rule:nonzero;stroke:none;stroke-width:0;stroke-dasharray:none;stroke-opacity:1"
     d="m 106.12312,183.58436 -12.440004,24.85 -6.36,4.05 16.280004,-32.85 z"
     id="path55" />
  <path
     style="fill:#2d928c;fill-opacity:1;fill-rule:nonzero;stroke:none;stroke-width:0;stroke-dasharray:none;stroke-opacity:1"
     d="m 221.54312,147.89436 7.18,-2.58 c 0,0 -52.82,65.88 -52.82,65.88 l 0.79,-7.51 z"
     id="path56" />
  <path
     style="fill:#3f9e96;fill-opacity:1;fill-rule:nonzero;stroke:none;stroke-width:0;stroke-dasharray:none;stroke-opacity:1"
     d="m 176.68312,203.68436 -0.78,7.51 -15.55,-33.21 4.64,0.49 z"
     id="path57" />
  <path
     style="fill:#c6f5df;fill-opacity:1;fill-rule:nonzero;stroke:none;stroke-width:0;stroke-dasharray:none;stroke-opacity:1"
     d="m 164.99312,178.47436 29.17,-36.48 -1.63,-4.44 -32.18,40.43 z"
     id="path58" />
  <path
     style="fill:#9edbc9;fill-opacity:1;fill-rule:nonzero;stroke:none;stroke-width:0;stroke-dasharray:none;stroke-opacity:1"
     d="m 194.16312,141.99436 27.38,5.9 7.18,-2.58 -36.19,-7.76 z"
     id="path59" />
  <text
     xml:space="preserve"
     style="font-weight:500;font-size:74.6667px;font-family:'Parry Grotesque';-inkscape-font-specification:'Parry Grotesque Medium';text-align:start;letter-spacing:1px;writing-mode:lr-tb;direction:ltr;text-anchor:start;fill:#3eb49d;stroke-width:0"
     x="277.39908"
     y="141.57303"
     id="text1"><tspan
       sodipodi:role="line"
       id="tspan1"
       x="277.39908"
       y="141.57303"
       style="font-style:normal;font-variant:normal;font-weight:bold;font-stretch:normal;font-size:74.6667px;font-family:'Droid Sans';-inkscape-font-specification:'Droid Sans, Bold';font-variant-ligatures:normal;font-variant-caps:normal;font-variant-numeric:normal;font-variant-east-asian:normal;letter-spacing:1px;fill:#1a1a1a">KUBE<tspan
   style="font-style:normal;font-variant:normal;font-weight:normal;font-stretch:normal;font-size:74.6667px;font-family:'Droid Sans';-inkscape-font-specification:'Droid Sans, Normal';font-variant-ligatures:normal;font-variant-caps:normal;font-variant-numeric:normal;font-variant-east-asian:normal"
   id="tspan3">WATT</tspan></tspan></text>
</svg>
