<?xml version="1.0" encoding="UTF-8" standalone="no"?>
<svg
   id="Layer_1"
   data-name="Layer 1"
   viewBox="0 0 235.07 230.35"
   version="1.1"
   sodipodi:docname="logo.svg"
   inkscape:version="1.4 (e7c3feb100, 2024-10-09)"
   xmlns:inkscape="http://www.inkscape.org/namespaces/inkscape"
   xmlns:sodipodi="http://sodipodi.sourceforge.net/DTD/sodipodi-0.dtd"
   xmlns:xlink="http://www.w3.org/1999/xlink"
   xmlns="http://www.w3.org/2000/svg"
   xmlns:svg="http://www.w3.org/2000/svg">
  <sodipodi:namedview
     id="namedview30"
     pagecolor="#ffffff"
     bordercolor="#000000"
     borderopacity="0.25"
     inkscape:showpageshadow="2"
     inkscape:pageopacity="0.0"
     inkscape:pagecheckerboard="0"
     inkscape:deskcolor="#d1d1d1"
     showgrid="false"
     inkscape:zoom="4"
     inkscape:cx="23"
     inkscape:cy="132.125"
     inkscape:window-width="3430"
     inkscape:window-height="1402"
     inkscape:window-x="0"
     inkscape:window-y="0"
     inkscape:window-maximized="0"
     inkscape:current-layer="Layer_1" />
  <defs
     id="defs10">
    <style
       id="style1">
      .cls-1 {
        fill: url(#linear-gradient);
      }

      .cls-1, .cls-2, .cls-3, .cls-4, .cls-5, .cls-6, .cls-7, .cls-8, .cls-9, .cls-10, .cls-11 {
        stroke-width: 0px;
      }

      .cls-2 {
        fill: url(#New_Gradient_Swatch_copy-3);
      }

      .cls-3 {
        fill: url(#New_Gradient_Swatch_copy);
      }

      .cls-4 {
        fill: #a9ff94;
      }

      .cls-5 {
        fill: #95d46b;
      }

      .cls-6 {
        fill: #2ec6ad;
      }

      .cls-12 {
        fill: #231f20;
        stroke-width: 5px;
      }

      .cls-12, .cls-13 {
        stroke: #231f20;
        stroke-miterlimit: 10;
      }

      .cls-7 {
        fill: url(#linear-gradient-2);
      }

      .cls-8 {
        fill: url(#New_Gradient_Swatch_copy-2);
      }

      .cls-9 {
        fill: url(#linear-gradient-3);
      }

      .cls-10, .cls-13 {
        fill: #fff;
      }

      .cls-13 {
        stroke-width: 6px;
      }

      .cls-11 {
        fill: url(#linear-gradient-4);
      }
    </style>
    <linearGradient
       id="linear-gradient"
       x1="140.32"
       y1="69.56"
       x2="163.53"
       y2="27.86"
       gradientUnits="userSpaceOnUse">
      <stop
         offset="0"
         stop-color="#2d928c"
         id="stop1" />
      <stop
         offset=".94"
         stop-color="#cffbe4"
         id="stop2" />
    </linearGradient>
    <linearGradient
       id="New_Gradient_Swatch_copy"
       data-name="New Gradient Swatch copy"
       x1="263.51"
       y1="110.97"
       x2="257.24"
       y2="70.03"
       gradientTransform="translate(113.87 -160.61) rotate(51.47)"
       gradientUnits="userSpaceOnUse">
      <stop
         offset="0"
         stop-color="#2d928c"
         id="stop3" />
      <stop
         offset="1"
         stop-color="#cffbe4"
         id="stop4" />
    </linearGradient>
    <linearGradient
       id="linear-gradient-2"
       x1="292.79"
       y1="138.99"
       x2="229.55"
       y2="183.6"
       gradientTransform="translate(393.6 -64.7) rotate(102.75)"
       gradientUnits="userSpaceOnUse">
      <stop
         offset="0"
         stop-color="#2d928c"
         id="stop5" />
      <stop
         offset=".75"
         stop-color="#cffbe4"
         id="stop6" />
    </linearGradient>
    <linearGradient
       id="New_Gradient_Swatch_copy-2"
       data-name="New Gradient Swatch copy"
       x1="427.65"
       y1="53.32"
       x2="405.36"
       y2="103.12"
       gradientTransform="translate(525.11 81.82) rotate(154.22)"
       xlink:href="#New_Gradient_Swatch_copy" />
    <linearGradient
       id="linear-gradient-3"
       x1="365.64"
       y1="-9.56"
       x2="391.66"
       y2="63.32"
       gradientTransform="translate(114.69 462.06) rotate(-102.86)"
       gradientUnits="userSpaceOnUse">
      <stop
         offset="0"
         stop-color="#2d928c"
         id="stop7" />
      <stop
         offset=".73"
         stop-color="#cffbe4"
         id="stop8" />
    </linearGradient>
    <linearGradient
       id="New_Gradient_Swatch_copy-3"
       data-name="New Gradient Swatch copy"
       x1="39.79"
       y1="184.17"
       x2="69.25"
       y2="140.9"
       gradientTransform="matrix(1,0,0,1,0,0)"
       xlink:href="#New_Gradient_Swatch_copy" />
    <linearGradient
       id="linear-gradient-4"
       x1="90.42"
       y1="-16.59"
       x2="146.45"
       y2="-53.06"
       gradientTransform="translate(32.01 158.4) rotate(-51.23)"
       gradientUnits="userSpaceOnUse">
      <stop
         offset="0"
         stop-color="#2d928c"
         id="stop9" />
      <stop
         offset="1"
         stop-color="#cffbe4"
         id="stop10" />
    </linearGradient>
    <linearGradient
       inkscape:collect="always"
       xlink:href="#linear-gradient"
       id="linearGradient36"
       gradientUnits="userSpaceOnUse"
       x1="140.32"
       y1="69.56"
       x2="121.06"
       y2="55.240002"
       gradientTransform="rotate(66.200909,192.22776,159.61843)" />
  </defs>
  <path
     class="cls-13"
     d="M108.65,5.03L33.22,41.35c-5.61,2.7-9.69,7.82-11.08,13.89L3.51,136.87c-1.39,6.07.07,12.45,3.95,17.32l52.2,65.46c3.88,4.87,9.78,7.71,16.01,7.71h83.72c6.23,0,12.12-2.84,16.01-7.71l52.2-65.46c3.88-4.87,5.34-11.25,3.95-17.32l-18.63-81.62c-1.39-6.07-5.46-11.19-11.08-13.89L126.42,5.03c-5.61-2.7-12.15-2.7-17.77,0Z"
     id="path10" />
  <path
     class="cls-12"
     d="M112.53,14.14L38.37,49.86c-3.16,1.52-5.45,4.4-6.24,7.82l-18.32,80.25c-.78,3.42.04,7.01,2.23,9.75l51.32,64.36c2.19,2.74,5.5,4.34,9.01,4.34h82.31c3.51,0,6.82-1.6,9.01-4.34l51.32-64.36c2.19-2.74,3.01-6.33,2.23-9.75l-18.32-80.25c-.78-3.42-3.08-6.3-6.24-7.82L122.53,14.14c-3.16-1.52-6.84-1.52-10,0Z"
     id="path11" />
  <path
     class="cls-10"
     d="M120.92,71.73l-13.8,19.64c-.11.16,0,.39.2.39l8.1.28c.16,0,.28.16.23.32-1.43,4.94-2.86,9.88-4.3,14.83-.08.27.27.44.44.22,5.09-6.52,10.18-13.03,15.27-19.55.13-.16.01-.41-.2-.41h-9.12c-.16,0-.28-.15-.24-.31,1.29-5.07,2.58-10.14,3.87-15.21.07-.27-.29-.43-.45-.21Z"
     id="path12" />
  <path
     class="cls-1"
     d="m 289.51123,121.43708 c -10.75631,-5.80294 -21.51263,-11.60588 -32.26895,-17.40882 0.58115,-17.218686 1.17548,-34.432256 1.76981,-51.645824 11.23419,-5.107665 22.46838,-10.21533 33.69341,-15.318959 -1.06305,28.12014 -2.13122,56.253466 -3.19427,84.373603 z"
     id="path13-2"
     style="fill:url(#linearGradient36);stroke-width:0px"
     sodipodi:nodetypes="ccccc" />
  <g
     id="g17">
    <path
       class="cls-5"
       d="M101.78,160.76c1.3-3.06,2.59-6.11,3.89-9.17-.54-4.16-.96-12.52,3.42-21.14,5.36-10.54,14.78-15.3,18.03-16.94,3.75-1.9,7.83-3.23,14.14-5.28,4.36-1.42,8.03-2.44,10.57-3.11.86,4.31,3.9,21.98-6.68,36.37-2.74,3.73-8.64,11.75-18.65,13.05-4.54.59-8.37-.4-10.72-1.24,2.75-5.74,5.8-9.63,8.08-12.12,2.99-3.26,6.1-5.7,11.5-11.81,1.21-1.37,2.17-2.51,2.8-3.26.76-.96.83-2.17.31-2.8-.65-.79-2.43-.87-3.57.47-3.29,1.94-7.19,4.61-11.19,8.24-4.44,4.03-10.35,9.52-13.99,18.49-2.05,5.06-2.73,9.64-2.95,12.9-1.66-.88-3.32-1.76-4.97-2.64Z"
       id="path14" />
    <path
       class="cls-5"
       d="M105.35,125.33c-1.54,1.95-3.45,4.8-4.97,8.55-1.68,4.12-2.27,7.81-2.49,10.41-1.36.06-2.55-.13-3.57-.47-7.26-2.35-11.46-13.33-11.66-27.2,3.4.74,7.29,1.82,11.5,3.42,4.35,1.66,8.09,3.52,11.19,5.28Z"
       id="path15" />
    <path
       class="cls-4"
       d="M106.17,138.66c3.27-6.44,7.03-10.94,9.8-13.8,2.72-2.81,15.14-15.64,32.68-15.95,1.6-.03,2.92.05,3.8.13-.21-1.31-.42-2.61-.63-3.92-4.25.25-26.09,1.92-38.84,19.34-3.62,4.95-5.65,9.99-6.82,14.2Z"
       id="path16" />
    <path
       class="cls-4"
       d="M82.66,116.62c3.12,1.08,6.76,2.59,10.65,4.74,4.06,2.25,7.4,4.64,10.03,6.79.67-.94,1.34-1.89,2.01-2.83-3.08-1.5-6.16-3.01-9.24-4.51-4.48-1.4-8.96-2.79-13.45-4.19Z"
       id="path17" />
  </g>
  <path
     class="cls-6"
     d="M189.07,56.09c-7.34,5.66-14.67,11.32-22.01,16.97-14.01-6.8-28.01-13.6-42.02-20.4-.1-9.34-.2-18.67-.29-28.01,21.44,10.48,42.88,20.96,64.32,31.43Z"
     id="path18"
     style="fill:#3eb49d;fill-opacity:1" />
  <path
     class="cls-6"
     d="M212.02,136.01c-9-2.21-17.99-4.43-26.99-6.64-3.41-15.19-6.81-30.38-10.22-45.58,7.24-5.89,14.48-11.78,21.73-17.68,5.16,23.3,10.32,46.6,15.47,69.89Z"
     id="path20"
     style="fill:#3eb49d;fill-opacity:1" />
  <path
     class="cls-6"
     d="M163.77,203.69c-3.9-8.4-7.8-16.81-11.7-25.21,9.72-12.16,19.45-24.32,29.17-36.48,9.13,1.97,18.25,3.93,27.38,5.9-14.95,18.6-29.91,37.19-44.86,55.79Z"
     id="path22"
     style="fill:#3eb49d;fill-opacity:1" />
  <path
     class="cls-6"
     d="M80.76,208.44c4.15-8.28,8.29-16.57,12.44-24.85,15.57.03,31.14.07,46.71.1,4.15,8.36,8.3,16.73,12.44,25.09-23.86-.11-47.72-.23-71.59-.34Z"
     id="path24"
     style="fill:#3eb49d;fill-opacity:1" />
  <path
     class="cls-6"
     d="M39.53,64.37c7.15,5.89,14.3,11.78,21.44,17.68-3.51,15.17-7.02,30.33-10.54,45.5-9.08,2.17-18.16,4.35-27.24,6.52,5.44-23.23,10.89-46.47,16.33-69.7Z"
     id="path26"
     style="fill:#3eb49d;fill-opacity:1" />
  <path
     class="cls-6"
     d="M25.6,146.34c9.06-1.92,18.12-3.84,27.19-5.76,9.68,12.2,19.35,24.39,29.03,36.59-3.96,8.46-7.91,16.91-11.87,25.37-14.78-18.73-29.57-37.46-44.35-56.19Z"
     id="path28"
     style="fill:#3eb49d;fill-opacity:1" />
  <path
     class="cls-6"
     d="M112.49,24.38c-.18,9.26-.37,18.52-.55,27.79-14.07,6.66-28.14,13.32-42.22,19.98-7.34-5.77-14.68-11.54-22.02-17.31,21.59-10.15,43.19-20.31,64.78-30.46Z"
     id="path30"
     style="fill:#3eb49d;fill-opacity:1" />
  <path
     style="fill:#56ada2;fill-opacity:1;stroke:none;stroke-opacity:1;stroke-width:0;stroke-dasharray:none;fill-rule:nonzero"
     d="m 185.03,129.37 -3.29,3.31 -11.42,-50.4 4.49,1.51 z"
     id="path31" />
  <path
     style="fill:#359790;fill-opacity:1;stroke:none;stroke-opacity:1;stroke-width:0;stroke-dasharray:none;fill-rule:nonzero"
     d="m 185.03,129.37 26.99,6.64 5.36,5.3 -35.64,-8.63 z"
     id="path32" />
  <path
     style="fill:#67b7ab;fill-opacity:1;stroke:none;stroke-opacity:1;stroke-width:0;stroke-dasharray:none;fill-rule:nonzero"
     d="m 212.015,136.005 5.365,5.305 -18.37,-82.41 -2.47,7.21 z"
     id="path33" />
  <path
     style="fill:#cffbe4;fill-rule:nonzero;fill-opacity:1;stroke:none;stroke-opacity:1;stroke-width:0;stroke-dasharray:none"
     d="m 174.81,83.79 21.73,-17.68 2.47,-7.21 -28.69,23.38 z"
     id="path34"
     inkscape:label="path34" />
  <path
     style="fill:#caf8e1;fill-opacity:1;fill-rule:nonzero;stroke:none;stroke-opacity:1;stroke-width:0;stroke-dasharray:none"
     d="m 124.75,24.65 -4.11,-6.42 75.91,36.97 -7.48,0.88 z"
     id="path36" />
  <path
     style="fill:#3f9e96;fill-opacity:1;fill-rule:nonzero;stroke:none;stroke-opacity:1;stroke-width:0;stroke-dasharray:none"
     d="m 189.07,56.09 7.48,-0.89 -28.95,22.5 -0.54,-4.64 z"
     id="path37" />
  <path
     style="fill:#2d928c;fill-opacity:1;fill-rule:nonzero;stroke:none;stroke-opacity:1;stroke-width:0;stroke-dasharray:none"
     d="m 167.06,73.06 0.54,4.64 -46.54,-22.46 3.98,-2.58 z"
     id="path38" />
  <path
     style="fill:#87ccbd;fill-opacity:1;fill-rule:nonzero;stroke:none;stroke-opacity:1;stroke-width:0;stroke-dasharray:none"
     d="m 125.04,52.66 -0.29,-28.01 -4.11,-6.42 0.42,37.01 z"
     id="path39" />
  <path
     style="fill:#3f9e96;fill-opacity:1;fill-rule:nonzero;stroke:none;stroke-opacity:1;stroke-width:0;stroke-dasharray:none"
     d="m 112.48,24.38 4,-6.39 -0.58,36.66 -3.96,-2.48 z"
     id="path40" />
  <path
     style="fill:#2d928c;fill-opacity:1;fill-rule:nonzero;stroke:none;stroke-opacity:1;stroke-width:0;stroke-dasharray:none"
     d="m 111.94,52.17 3.96,2.48 -46.66,22.22 0.48,-4.72 z"
     id="path41" />
  <path
     style="fill:#33968f;fill-opacity:1;fill-rule:nonzero;stroke:none;stroke-opacity:1;stroke-width:0;stroke-dasharray:none"
     d="M 69.72,72.15 69.24,76.87 40.12,54.02 47.7,54.84 Z"
     id="path42" />
  <path
     style="fill:#cffbe4;fill-opacity:1;fill-rule:nonzero;stroke:none;stroke-opacity:1;stroke-width:0;stroke-dasharray:none"
     d="m 47.7,54.84 64.78,-30.46 4,-6.39 -76.36,36.03 z"
     id="path43" />
  <path
     style="fill:#67b7ab;fill-opacity:1;fill-rule:nonzero;stroke:none;stroke-opacity:1;stroke-width:0;stroke-dasharray:none"
     d="M 39.52,64.37 37,57.28 65.38,80.49 60.97,82.05 Z"
     id="path44" />
  <path
     style="fill:#3f9e96;fill-opacity:1;fill-rule:nonzero;stroke:none;stroke-opacity:1;stroke-width:0;stroke-dasharray:none"
     d="m 60.97,82.05 -10.54,45.5 3.41,3.31 11.54,-50.37 z"
     id="path45" />
  <path
     style="fill:#2d928c;fill-opacity:1;fill-rule:nonzero;stroke:none;stroke-opacity:1;stroke-width:0;stroke-dasharray:none"
     d="m 50.43,127.55 3.41,3.31 c 0,0 -35.99,8.65 -35.99,8.65 l 5.34,-5.44 z"
     id="path46" />
  <path
     style="fill:#aae3d0;fill-opacity:1;fill-rule:nonzero;stroke:none;stroke-opacity:1;stroke-width:0;stroke-dasharray:none"
     d="M 23.19,134.07 17.85,139.51 37,57.28 39.52,64.37 Z"
     id="path47" />
  <path
     style="fill:#67b7ab;fill-opacity:1;fill-rule:nonzero;stroke:none;stroke-opacity:1;stroke-width:0;stroke-dasharray:none"
     d="m 52.79,140.58 1.52,-4.42 32.22,40.4 -4.71,0.61 z"
     id="path48" />
  <path
     style="fill:#cffbe4;fill-opacity:1;fill-rule:nonzero;stroke:none;stroke-opacity:1;stroke-width:0;stroke-dasharray:none"
     d="m 54.31,136.16 -1.52,4.42 -27.19,5.77 -7.12,-2.46 z"
     id="path49" />
  <path
     style="fill:#359790;fill-opacity:1;fill-rule:nonzero;stroke:none;stroke-opacity:1;stroke-width:0;stroke-dasharray:none"
     d="m 25.6,146.35 44.35,56.19 0.93,7.56 -52.4,-66.21 z"
     id="path50" />
  <path
     style="fill:#2d928c;fill-opacity:1;fill-rule:nonzero;stroke:none;stroke-opacity:1;stroke-width:0;stroke-dasharray:none"
     d="m 69.95,202.54 0.93,7.56 15.65,-33.54 -4.71,0.61 z"
     id="path51" />
  <path
     style="fill:#cffbe4;fill-opacity:1;fill-rule:nonzero;stroke:none;stroke-opacity:1;stroke-width:0;stroke-dasharray:none"
     d="m 93.2,183.59 -2.52,-3.95 51.68,-0.01 -2.45,4.06 z"
     id="path52" />
  <path
     style="fill:#4ba59c;fill-opacity:1;fill-rule:nonzero;stroke:none;stroke-opacity:1;stroke-width:0;stroke-dasharray:none"
     d="m 139.91,183.69 2.45,-4.06 16.47,33.14 -6.48,-3.99 z"
     id="path53" />
  <path
     style="fill:#2d928c;fill-opacity:1;fill-rule:nonzero;stroke:none;stroke-opacity:1;stroke-width:0;stroke-dasharray:none"
     d="m 152.35,208.78 6.48,3.99 -84.43,-0.28 6.36,-4.05 z"
     id="path54" />
  <path
     style="fill:#93d4c3;fill-opacity:1;fill-rule:nonzero;stroke:none;stroke-opacity:1;stroke-width:0;stroke-dasharray:none"
     d="m 93.2,183.59 -12.44,24.85 -6.36,4.05 16.28,-32.85 z"
     id="path55" />
  <path
     style="fill:#2d928c;fill-opacity:1;fill-rule:nonzero;stroke:none;stroke-opacity:1;stroke-width:0;stroke-dasharray:none"
     d="m 208.62,147.9 7.18,-2.58 c 0,0 -52.82,65.88 -52.82,65.88 l 0.79,-7.51 z"
     id="path56" />
  <path
     style="fill:#3f9e96;fill-opacity:1;fill-rule:nonzero;stroke:none;stroke-opacity:1;stroke-width:0;stroke-dasharray:none"
     d="m 163.76,203.69 -0.78,7.51 -15.55,-33.21 4.64,0.49 z"
     id="path57" />
  <path
     style="fill:#c6f5df;fill-opacity:1;fill-rule:nonzero;stroke:none;stroke-opacity:1;stroke-width:0;stroke-dasharray:none"
     d="m 152.07,178.48 29.17,-36.48 -1.63,-4.44 -32.18,40.43 z"
     id="path58" />
  <path
     style="fill:#9edbc9;fill-opacity:1;fill-rule:nonzero;stroke:none;stroke-opacity:1;stroke-width:0;stroke-dasharray:none"
     d="m 181.24,142 27.38,5.9 7.18,-2.58 -36.19,-7.76 z"
     id="path59" />
</svg>
