<?xml version="1.0" encoding="UTF-8" standalone="no"?>
<svg
   id="Layer_1"
   data-name="Layer 1"
   viewBox="0 0 670.72386 230.35435"
   version="1.1"
   sodipodi:docname="kubewatt-text.svg"
   inkscape:version="1.4 (e7c3feb100, 2024-10-09)"
   width="670.72388"
   height="230.35435"
   xmlns:inkscape="http://www.inkscape.org/namespaces/inkscape"
   xmlns:sodipodi="http://sodipodi.sourceforge.net/DTD/sodipodi-0.dtd"
   xmlns:xlink="http://www.w3.org/1999/xlink"
   xmlns="http://www.w3.org/2000/svg"
   xmlns:svg="http://www.w3.org/2000/svg">
  <sodipodi:namedview
     id="namedview30"
     pagecolor="#ffffff"
     bordercolor="#000000"
     borderopacity="0.25"
     inkscape:showpageshadow="2"
     inkscape:pageopacity="0.0"
     inkscape:pagecheckerboard="0"
     inkscape:deskcolor="#d1d1d1"
     showgrid="false"
     inkscape:zoom="1.4142136"
     inkscape:cx="276.47875"
     inkscape:cy="142.48202"
     inkscape:window-width="1997"
     inkscape:window-height="1186"
     inkscape:window-x="26"
     inkscape:window-y="23"
     inkscape:window-maximized="0"
     inkscape:current-layer="text1" />
  <defs
     id="defs10">
    <style
       id="style1">
      .cls-1 {
        fill: url(#linear-gradient);
      }

      .cls-1, .cls-2, .cls-3, .cls-4, .cls-5, .cls-6, .cls-7, .cls-8, .cls-9, .cls-10, .cls-11 {
        stroke-width: 0px;
      }

      .cls-2 {
        fill: url(#New_Gradient_Swatch_copy-3);
      }

      .cls-3 {
        fill: url(#New_Gradient_Swatch_copy);
      }

      .cls-4 {
        fill: #a9ff94;
      }

      .cls-5 {
        fill: #95d46b;
      }

      .cls-6 {
        fill: #2ec6ad;
      }

      .cls-12 {
        fill: #231f20;
        stroke-width: 5px;
      }

      .cls-12, .cls-13 {
        stroke: #231f20;
        stroke-miterlimit: 10;
      }

      .cls-7 {
        fill: url(#linear-gradient-2);
      }

      .cls-8 {
        fill: url(#New_Gradient_Swatch_copy-2);
      }

      .cls-9 {
        fill: url(#linear-gradient-3);
      }

      .cls-10, .cls-13 {
        fill: #fff;
      }

      .cls-13 {
        stroke-width: 6px;
      }

      .cls-11 {
        fill: url(#linear-gradient-4);
      }
    </style>
    <linearGradient
       id="linear-gradient"
       x1="140.32001"
       y1="69.559998"
       x2="163.53"
       y2="27.860001"
       gradientUnits="userSpaceOnUse">
      <stop
         offset="0"
         stop-color="#2d928c"
         id="stop1" />
      <stop
         offset=".94"
         stop-color="#cffbe4"
         id="stop2" />
    </linearGradient>
    <linearGradient
       id="New_Gradient_Swatch_copy"
       data-name="New Gradient Swatch copy"
       x1="263.51001"
       y1="110.97"
       x2="257.23999"
       y2="70.029999"
       gradientTransform="rotate(51.47,223.53595,37.812488)"
       gradientUnits="userSpaceOnUse">
      <stop
         offset="0"
         stop-color="#2d928c"
         id="stop3" />
      <stop
         offset="1"
         stop-color="#cffbe4"
         id="stop4" />
    </linearGradient>
    <linearGradient
       id="linear-gradient-2"
       x1="292.79001"
       y1="138.99001"
       x2="229.55"
       y2="183.60001"
       gradientTransform="rotate(102.75,222.64778,124.89402)"
       gradientUnits="userSpaceOnUse">
      <stop
         offset="0"
         stop-color="#2d928c"
         id="stop5" />
      <stop
         offset=".75"
         stop-color="#cffbe4"
         id="stop6" />
    </linearGradient>
    <linearGradient
       id="New_Gradient_Swatch_copy-2"
       data-name="New Gradient Swatch copy"
       x1="427.64999"
       y1="53.32"
       x2="405.35999"
       y2="103.12"
       gradientTransform="rotate(154.22,253.19287,100.9949)"
       xlink:href="#New_Gradient_Swatch_copy" />
    <linearGradient
       id="linear-gradient-3"
       x1="365.64001"
       y1="-9.5600004"
       x2="391.66"
       y2="63.32"
       gradientTransform="rotate(-102.86,241.57585,185.30123)"
       gradientUnits="userSpaceOnUse">
      <stop
         offset="0"
         stop-color="#2d928c"
         id="stop7" />
      <stop
         offset=".73"
         stop-color="#cffbe4"
         id="stop8" />
    </linearGradient>
    <linearGradient
       id="New_Gradient_Swatch_copy-3"
       data-name="New Gradient Swatch copy"
       x1="39.790001"
       y1="184.17"
       x2="69.25"
       y2="140.89999"
       xlink:href="#New_Gradient_Swatch_copy" />
    <linearGradient
       id="linear-gradient-4"
       x1="90.419998"
       y1="-16.59"
       x2="146.45"
       y2="-53.060001"
       gradientTransform="rotate(-51.23,181.19715,45.817419)"
       gradientUnits="userSpaceOnUse">
      <stop
         offset="0"
         stop-color="#2d928c"
         id="stop9" />
      <stop
         offset="1"
         stop-color="#cffbe4"
         id="stop10" />
    </linearGradient>
  </defs>
  <path
     class="cls-13"
     d="M 121.57312,5.0243616 46.143116,41.344362 c -5.61,2.7 -9.69,7.82 -11.08,13.89 l -18.63,81.629998 c -1.39,6.07 0.07,12.45 3.95,17.32 l 52.2,65.46 c 3.88,4.87 9.78,7.71 16.01,7.71 h 83.720004 c 6.23,0 12.12,-2.84 16.01,-7.71 l 52.2,-65.46 c 3.88,-4.87 5.34,-11.25 3.95,-17.32 l -18.63,-81.619998 c -1.39,-6.07 -5.46,-11.19 -11.08,-13.89 l -75.42,-36.3300004 c -5.61,-2.7 -12.15,-2.7 -17.77,0 z"
     id="path10" />
  <path
     class="cls-12"
     d="m 125.45312,14.134362 -74.160004,35.72 c -3.16,1.52 -5.45,4.4 -6.24,7.82 l -18.32,80.249998 c -0.78,3.42 0.04,7.01 2.23,9.75 l 51.32,64.36 c 2.19,2.74 5.5,4.34 9.01,4.34 h 82.310004 c 3.51,0 6.82,-1.6 9.01,-4.34 l 51.32,-64.36 c 2.19,-2.74 3.01,-6.33 2.23,-9.75 l -18.32,-80.249998 c -0.78,-3.42 -3.08,-6.3 -6.24,-7.82 l -74.15,-35.72 c -3.16,-1.52 -6.84,-1.52 -10,0 z"
     id="path11" />
  <path
     class="cls-10"
     d="m 133.84312,71.724362 -13.8,19.64 c -0.11,0.16 0,0.39 0.2,0.39 l 8.1,0.28 c 0.16,0 0.28,0.16 0.23,0.32 -1.43,4.94 -2.86,9.879998 -4.3,14.829998 -0.08,0.27 0.27,0.44 0.44,0.22 5.09,-6.52 10.18,-13.029998 15.27,-19.549998 0.13,-0.16 0.01,-0.41 -0.2,-0.41 h -9.12 c -0.16,0 -0.28,-0.15 -0.24,-0.31 1.29,-5.07 2.58,-10.14 3.87,-15.21 0.07,-0.27 -0.29,-0.43 -0.45,-0.21 z"
     id="path12" />
  <g
     id="g17"
     transform="translate(12.923116,-0.0056384)">
    <path
       class="cls-5"
       d="m 101.78,160.76 c 1.3,-3.06 2.59,-6.11 3.89,-9.17 -0.54,-4.16 -0.96,-12.52 3.42,-21.14 5.36,-10.54 14.78,-15.3 18.03,-16.94 3.75,-1.9 7.83,-3.23 14.14,-5.28 4.36,-1.42 8.03,-2.44 10.57,-3.11 0.86,4.31 3.9,21.98 -6.68,36.37 -2.74,3.73 -8.64,11.75 -18.65,13.05 -4.54,0.59 -8.37,-0.4 -10.72,-1.24 2.75,-5.74 5.8,-9.63 8.08,-12.12 2.99,-3.26 6.1,-5.7 11.5,-11.81 1.21,-1.37 2.17,-2.51 2.8,-3.26 0.76,-0.96 0.83,-2.17 0.31,-2.8 -0.65,-0.79 -2.43,-0.87 -3.57,0.47 -3.29,1.94 -7.19,4.61 -11.19,8.24 -4.44,4.03 -10.35,9.52 -13.99,18.49 -2.05,5.06 -2.73,9.64 -2.95,12.9 -1.66,-0.88 -3.32,-1.76 -4.97,-2.64 z"
       id="path14" />
    <path
       class="cls-5"
       d="m 105.35,125.33 c -1.54,1.95 -3.45,4.8 -4.97,8.55 -1.68,4.12 -2.27,7.81 -2.49,10.41 -1.36,0.06 -2.55,-0.13 -3.57,-0.47 -7.26,-2.35 -11.46,-13.33 -11.66,-27.2 3.4,0.74 7.29,1.82 11.5,3.42 4.35,1.66 8.09,3.52 11.19,5.28 z"
       id="path15" />
    <path
       class="cls-4"
       d="m 106.17,138.66 c 3.27,-6.44 7.03,-10.94 9.8,-13.8 2.72,-2.81 15.14,-15.64 32.68,-15.95 1.6,-0.03 2.92,0.05 3.8,0.13 -0.21,-1.31 -0.42,-2.61 -0.63,-3.92 -4.25,0.25 -26.09,1.92 -38.84,19.34 -3.62,4.95 -5.65,9.99 -6.82,14.2 z"
       id="path16" />
    <path
       class="cls-4"
       d="m 82.66,116.62 c 3.12,1.08 6.76,2.59 10.65,4.74 4.06,2.25 7.4,4.64 10.03,6.79 0.67,-0.94 1.34,-1.89 2.01,-2.83 -3.08,-1.5 -6.16,-3.01 -9.24,-4.51 -4.48,-1.4 -8.96,-2.79 -13.45,-4.19 z"
       id="path17" />
  </g>
  <path
     class="cls-6"
     d="m 201.99312,56.084362 c -7.34,5.66 -14.67,11.32 -22.01,16.97 -14.01,-6.8 -28.01,-13.6 -42.02,-20.4 -0.1,-9.34 -0.2,-18.67 -0.29,-28.01 21.44,10.48 42.88,20.96 64.32,31.43 z"
     id="path18"
     style="fill:#3eb49d;fill-opacity:1" />
  <path
     class="cls-6"
     d="m 224.94312,136.00436 c -9,-2.21 -17.99,-4.43 -26.99,-6.64 -3.41,-15.19 -6.81,-30.379998 -10.22,-45.579998 7.24,-5.89 14.48,-11.78 21.73,-17.68 5.16,23.3 10.32,46.599998 15.47,69.889998 z"
     id="path20"
     style="fill:#3eb49d;fill-opacity:1" />
  <path
     class="cls-6"
     d="m 176.69312,203.68436 c -3.9,-8.4 -7.8,-16.81 -11.7,-25.21 9.72,-12.16 19.45,-24.32 29.17,-36.48 9.13,1.97 18.25,3.93 27.38,5.9 -14.95,18.6 -29.91,37.19 -44.86,55.79 z"
     id="path22"
     style="fill:#3eb49d;fill-opacity:1" />
  <path
     class="cls-6"
     d="m 93.683116,208.43436 c 4.15,-8.28 8.290004,-16.57 12.440004,-24.85 15.57,0.03 31.14,0.07 46.71,0.1 4.15,8.36 8.3,16.73 12.44,25.09 -23.86,-0.11 -47.72,-0.23 -71.590004,-0.34 z"
     id="path24"
     style="fill:#3eb49d;fill-opacity:1" />
  <path
     class="cls-6"
     d="m 52.453116,64.364362 c 7.15,5.89 14.3,11.78 21.44,17.68 -3.51,15.17 -7.02,30.329998 -10.54,45.499998 -9.08,2.17 -18.16,4.35 -27.24,6.52 5.44,-23.23 10.89,-46.469998 16.33,-69.699998 z"
     id="path26"
     style="fill:#3eb49d;fill-opacity:1" />
  <path
     class="cls-6"
     d="m 38.523116,146.33436 c 9.06,-1.92 18.12,-3.84 27.19,-5.76 9.68,12.2 19.35,24.39 29.03,36.59 -3.96,8.46 -7.91,16.91 -11.87,25.37 -14.78,-18.73 -29.57,-37.46 -44.35,-56.19 z"
     id="path28"
     style="fill:#3eb49d;fill-opacity:1" />
  <path
     class="cls-6"
     d="m 125.41312,24.374362 c -0.18,9.26 -0.37,18.52 -0.55,27.79 -14.07,6.66 -28.140004,13.32 -42.220004,19.98 -7.34,-5.77 -14.68,-11.54 -22.02,-17.31 21.59,-10.15 43.190004,-20.31 64.780004,-30.46 z"
     id="path30"
     style="fill:#3eb49d;fill-opacity:1" />
  <path
     style="fill:#56ada2;fill-opacity:1;fill-rule:nonzero;stroke:none;stroke-width:0;stroke-dasharray:none;stroke-opacity:1"
     d="m 197.95312,129.36436 -3.29,3.31 -11.42,-50.399998 4.49,1.51 z"
     id="path31" />
  <path
     style="fill:#359790;fill-opacity:1;fill-rule:nonzero;stroke:none;stroke-width:0;stroke-dasharray:none;stroke-opacity:1"
     d="m 197.95312,129.36436 26.99,6.64 5.36,5.3 -35.64,-8.63 z"
     id="path32" />
  <path
     style="fill:#67b7ab;fill-opacity:1;fill-rule:nonzero;stroke:none;stroke-width:0;stroke-dasharray:none;stroke-opacity:1"
     d="m 224.93812,135.99936 5.365,5.305 -18.37,-82.409998 -2.47,7.21 z"
     id="path33" />
  <path
     style="fill:#cffbe4;fill-opacity:1;fill-rule:nonzero;stroke:none;stroke-width:0;stroke-dasharray:none;stroke-opacity:1"
     d="m 187.73312,83.784362 21.73,-17.68 2.47,-7.21 -28.69,23.38 z"
     id="path34"
     inkscape:label="path34" />
  <path
     style="fill:#caf8e1;fill-opacity:1;fill-rule:nonzero;stroke:none;stroke-width:0;stroke-dasharray:none;stroke-opacity:1"
     d="m 137.67312,24.644362 -4.11,-6.42 75.91,36.97 -7.48,0.88 z"
     id="path36" />
  <path
     style="fill:#3f9e96;fill-opacity:1;fill-rule:nonzero;stroke:none;stroke-width:0;stroke-dasharray:none;stroke-opacity:1"
     d="m 201.99312,56.084362 7.48,-0.89 -28.95,22.5 -0.54,-4.64 z"
     id="path37" />
  <path
     style="fill:#2d928c;fill-opacity:1;fill-rule:nonzero;stroke:none;stroke-width:0;stroke-dasharray:none;stroke-opacity:1"
     d="m 179.98312,73.054362 0.54,4.64 -46.54,-22.46 3.98,-2.58 z"
     id="path38" />
  <path
     style="fill:#87ccbd;fill-opacity:1;fill-rule:nonzero;stroke:none;stroke-width:0;stroke-dasharray:none;stroke-opacity:1"
     d="m 137.96312,52.654362 -0.29,-28.01 -4.11,-6.42 0.42,37.01 z"
     id="path39" />
  <path
     style="fill:#3f9e96;fill-opacity:1;fill-rule:nonzero;stroke:none;stroke-width:0;stroke-dasharray:none;stroke-opacity:1"
     d="m 125.40312,24.374362 4,-6.39 -0.58,36.66 -3.96,-2.48 z"
     id="path40" />
  <path
     style="fill:#2d928c;fill-opacity:1;fill-rule:nonzero;stroke:none;stroke-width:0;stroke-dasharray:none;stroke-opacity:1"
     d="m 124.86312,52.164362 3.96,2.48 -46.660004,22.22 0.48,-4.72 z"
     id="path41" />
  <path
     style="fill:#33968f;fill-opacity:1;fill-rule:nonzero;stroke:none;stroke-width:0;stroke-dasharray:none;stroke-opacity:1"
     d="m 82.643116,72.144362 -0.48,4.72 -29.12,-22.85 7.58,0.82 z"
     id="path42" />
  <path
     style="fill:#cffbe4;fill-opacity:1;fill-rule:nonzero;stroke:none;stroke-width:0;stroke-dasharray:none;stroke-opacity:1"
     d="m 60.623116,54.834362 64.780004,-30.46 4,-6.39 -76.360004,36.03 z"
     id="path43" />
  <path
     style="fill:#67b7ab;fill-opacity:1;fill-rule:nonzero;stroke:none;stroke-width:0;stroke-dasharray:none;stroke-opacity:1"
     d="m 52.443116,64.364362 -2.52,-7.09 28.38,23.21 -4.41,1.56 z"
     id="path44" />
  <path
     style="fill:#3f9e96;fill-opacity:1;fill-rule:nonzero;stroke:none;stroke-width:0;stroke-dasharray:none;stroke-opacity:1"
     d="m 73.893116,82.044362 -10.54,45.499998 3.41,3.31 11.54,-50.369998 z"
     id="path45" />
  <path
     style="fill:#2d928c;fill-opacity:1;fill-rule:nonzero;stroke:none;stroke-width:0;stroke-dasharray:none;stroke-opacity:1"
     d="m 63.353116,127.54436 3.41,3.31 c 0,0 -35.99,8.65 -35.99,8.65 l 5.34,-5.44 z"
     id="path46" />
  <path
     style="fill:#aae3d0;fill-opacity:1;fill-rule:nonzero;stroke:none;stroke-width:0;stroke-dasharray:none;stroke-opacity:1"
     d="m 36.113116,134.06436 -5.34,5.44 19.15,-82.229998 2.52,7.09 z"
     id="path47" />
  <path
     style="fill:#67b7ab;fill-opacity:1;fill-rule:nonzero;stroke:none;stroke-width:0;stroke-dasharray:none;stroke-opacity:1"
     d="m 65.713116,140.57436 1.52,-4.42 32.22,40.4 -4.71,0.61 z"
     id="path48" />
  <path
     style="fill:#cffbe4;fill-opacity:1;fill-rule:nonzero;stroke:none;stroke-width:0;stroke-dasharray:none;stroke-opacity:1"
     d="m 67.233116,136.15436 -1.52,4.42 -27.19,5.77 -7.12,-2.46 z"
     id="path49" />
  <path
     style="fill:#359790;fill-opacity:1;fill-rule:nonzero;stroke:none;stroke-width:0;stroke-dasharray:none;stroke-opacity:1"
     d="m 38.523116,146.34436 44.35,56.19 0.93,7.56 -52.4,-66.21 z"
     id="path50" />
  <path
     style="fill:#2d928c;fill-opacity:1;fill-rule:nonzero;stroke:none;stroke-width:0;stroke-dasharray:none;stroke-opacity:1"
     d="m 82.873116,202.53436 0.93,7.56 15.65,-33.54 -4.71,0.61 z"
     id="path51" />
  <path
     style="fill:#cffbe4;fill-opacity:1;fill-rule:nonzero;stroke:none;stroke-width:0;stroke-dasharray:none;stroke-opacity:1"
     d="m 106.12312,183.58436 -2.52,-3.95 51.68,-0.01 -2.45,4.06 z"
     id="path52" />
  <path
     style="fill:#4ba59c;fill-opacity:1;fill-rule:nonzero;stroke:none;stroke-width:0;stroke-dasharray:none;stroke-opacity:1"
     d="m 152.83312,183.68436 2.45,-4.06 16.47,33.14 -6.48,-3.99 z"
     id="path53" />
  <path
     style="fill:#2d928c;fill-opacity:1;fill-rule:nonzero;stroke:none;stroke-width:0;stroke-dasharray:none;stroke-opacity:1"
     d="m 165.27312,208.77436 6.48,3.99 -84.430004,-0.28 6.36,-4.05 z"
     id="path54" />
  <path
     style="fill:#93d4c3;fill-opacity:1;fill-rule:nonzero;stroke:none;stroke-width:0;stroke-dasharray:none;stroke-opacity:1"
     d="m 106.12312,183.58436 -12.440004,24.85 -6.36,4.05 16.280004,-32.85 z"
     id="path55" />
  <path
     style="fill:#2d928c;fill-opacity:1;fill-rule:nonzero;stroke:none;stroke-width:0;stroke-dasharray:none;stroke-opacity:1"
     d="m 221.54312,147.89436 7.18,-2.58 c 0,0 -52.82,65.88 -52.82,65.88 l 0.79,-7.51 z"
     id="path56" />
  <path
     style="fill:#3f9e96;fill-opacity:1;fill-rule:nonzero;stroke:none;stroke-width:0;stroke-dasharray:none;stroke-opacity:1"
     d="m 176.68312,203.68436 -0.78,7.51 -15.55,-33.21 4.64,0.49 z"
     id="path57" />
  <path
     style="fill:#c6f5df;fill-opacity:1;fill-rule:nonzero;stroke:none;stroke-width:0;stroke-dasharray:none;stroke-opacity:1"
     d="m 164.99312,178.47436 29.17,-36.48 -1.63,-4.44 -32.18,40.43 z"
     id="path58" />
  <path
     style="fill:#9edbc9;fill-opacity:1;fill-rule:nonzero;stroke:none;stroke-width:0;stroke-dasharray:none;stroke-opacity:1"
     d="m 194.16312,141.99436 27.38,5.9 7.18,-2.58 -36.19,-7.76 z"
     id="path59" />
  <g
     id="text1"
     style="font-weight:500;font-size:74.6667px;font-family:'Parry Grotesque';-inkscape-font-specification:'Parry Grotesque Medium';letter-spacing:1px;fill:#3eb49d;stroke-width:0"
     aria-label="KUBEWATT">
    <path
       style="font-weight:bold;font-family:'Droid Sans';-inkscape-font-specification:'Droid Sans, Bold';fill:#1a1a1a"
       d="m 324.72202,141.57303 h -12.83334 l -12.25001,-22.16668 -4.22917,3.13542 v 19.03126 H 284.10741 V 88.27092 h 11.30209 v 25.66668 l 4.44792,-7.54688 12.17709,-18.1198 h 12.54167 l -17.02605,24.02605 z m 48.10419,-53.30211 v 34.4896 q 0,4.15625 -1.27604,7.72917 -1.23959,3.57292 -3.82813,6.19792 -2.55209,2.625 -6.41667,4.11979 -3.86459,1.4948 -9.07813,1.4948 -4.92188,0 -8.71355,-1.38542 -3.75521,-1.42188 -6.30729,-4.01042 -2.51563,-2.58854 -3.82813,-6.19792 -1.3125,-3.64584 -1.3125,-8.09375 V 88.27092 h 11.26563 v 33.50522 q 0,2.95313 0.58334,5.06771 0.58333,2.07813 1.71354,3.42709 1.16667,1.3125 2.88021,1.93229 1.71354,0.61979 4.01042,0.61979 4.77604,0 6.89063,-2.77083 2.15104,-2.77083 2.15104,-8.34896 V 88.27092 Z m 14.05209,0 h 15.60417 q 5.03125,0 8.82292,0.729167 3.79167,0.692708 6.34375,2.296876 2.55209,1.567709 3.82813,4.156252 1.3125,2.552084 1.3125,6.307295 0,2.26042 -0.54687,4.22917 -0.54688,1.96875 -1.60417,3.46354 -1.05729,1.49479 -2.58854,2.51563 -1.4948,0.98437 -3.46355,1.3125 v 0.36458 q 2.00521,0.4375 3.71875,1.27604 1.75001,0.80209 3.02605,2.26042 1.3125,1.42188 2.04167,3.60938 0.76562,2.1875 0.76562,5.32292 0,3.64583 -1.27604,6.52604 -1.27604,2.84375 -3.68229,4.84896 -2.3698,1.96875 -5.79688,3.02605 -3.39063,1.05729 -7.69271,1.05729 H 386.8783 Z m 11.30209,21.10938 h 5.86979 q 2.11458,0 3.53646,-0.36458 1.42188,-0.40104 2.29688,-1.16667 0.875,-0.76562 1.23958,-1.89583 0.40104,-1.16667 0.40104,-2.69792 0,-3.0625 -1.93229,-4.375 -1.89584,-1.348959 -6.05209,-1.348959 h -5.35937 z m 0,8.96876 v 13.89063 h 6.63542 q 2.22395,0 3.71875,-0.51042 1.53125,-0.51041 2.44271,-1.45833 0.94791,-0.94792 1.34896,-2.29688 0.40104,-1.34896 0.40104,-2.98958 0,-1.49479 -0.40104,-2.69792 -0.40105,-1.23958 -1.38542,-2.11458 -0.94792,-0.875 -2.51563,-1.34896 -1.56771,-0.47396 -3.90104,-0.47396 z m 68.33856,23.22397 H 435.82102 V 88.27092 h 30.69793 v 9.260421 H 447.12311 V 109.23447 H 465.17 v 9.26042 h -18.04689 v 13.7448 h 19.39584 z"
       id="path1" />
    <path
       style="font-weight:normal;font-family:'Droid Sans';-inkscape-font-specification:'Droid Sans, Normal';fill:#1a1a1a"
       d="m 501.42523,88.27092 h 7.18229 l 8.34896,31.20835 q 0.54688,2.04167 1.0573,4.08333 0.54687,2.04167 0.98437,3.97396 0.47396,1.89584 0.80208,3.60938 0.36459,1.71354 0.58334,3.09896 0.14583,-1.38542 0.36458,-3.02604 0.21875,-1.64063 0.51042,-3.42709 0.29167,-1.82292 0.61979,-3.68229 0.36458,-1.89584 0.76563,-3.68229 l 7.29167,-32.15627 h 7.25521 l -13.38022,53.30211 h -6.85417 l -9.26042,-34.19793 q -0.51041,-1.85938 -0.98437,-3.82813 -0.47396,-1.96875 -0.875,-3.682295 -0.4375,-2.005209 -0.83855,-3.901043 -0.40104,1.859376 -0.80208,3.864585 -0.36458,1.713543 -0.83854,3.755213 -0.4375,2.04166 -0.94792,4.01042 l -8.82292,33.97918 h -6.85417 L 472.65959,88.27092 h 7.18229 l 8.13021,32.41147 q 0.4375,1.67709 0.80209,3.50001 0.36458,1.78645 0.65625,3.57291 0.32812,1.78646 0.58333,3.46355 0.25521,1.64062 0.4375,3.02604 0.18229,-1.34896 0.4375,-3.13542 0.29167,-1.78646 0.65625,-3.75521 0.36459,-1.96875 0.76563,-3.97396 0.4375,-2.04167 0.91146,-3.82813 z m 74.46356,53.30211 -5.83333,-16.51563 h -19.86981 l -5.90625,16.51563 h -6.85417 l 19.57814,-53.52086 h 6.19792 l 19.61459,53.52086 z m -7.98438,-22.53126 -5.39583,-15.45834 q -0.21875,-0.65625 -0.54688,-1.60417 -0.29166,-0.94792 -0.61979,-2.041668 -0.32813,-1.09375 -0.65625,-2.260418 -0.32813,-1.203125 -0.61979,-2.333334 -0.25521,1.130209 -0.58334,2.333334 -0.32812,1.203126 -0.65625,2.333336 -0.32812,1.09375 -0.65625,2.04167 -0.29166,0.91146 -0.51041,1.53125 l -5.28646,15.45834 z m 34.21357,22.53126 h -6.81771 V 94.250089 H 580.06068 V 88.27092 h 37.26043 v 5.979169 h -15.20313 z m 40.48438,0 h -6.81771 V 94.250089 h -15.2396 V 88.27092 h 37.26044 v 5.979169 h -15.20313 z"
       id="path2" />
  </g>
</svg>
